<?xml version="1.0" encoding="utf-8"?>
<!-- Generator: Adobe Illustrator 25.1.0, SVG Export Plug-In . SVG Version: 6.00 Build 0)  -->
<svg version="1.1" id="Layer_1" xmlns="http://www.w3.org/2000/svg" xmlns:xlink="http://www.w3.org/1999/xlink" x="0px" y="0px"
	 viewBox="0 0 180 48" style="enable-background:new 0 0 180 48;" xml:space="preserve">
<style type="text/css">
	.st0{fill-rule:evenodd;clip-rule:evenodd;fill:#FFFFFF;}
	.st1{display:none;}
	.st2{display:inline;fill:#FFFFFF;}
	.st3{display:none;clip-path:url(#SVGID_4_);}
	.st4{display:inline;}
	.st5{fill:#FFFFFF;}
	.st6{clip-path:url(#SVGID_6_);}
	.st7{clip-path:url(#SVGID_8_);fill:#FFFFFF;}
	.st8{fill:#E72727;}
</style>
<polygon class="st0" points="5.8,5.3 11.9,5.3 8.9,29.5 19.8,5.3 26.1,5.3 8.4,43 1.3,43 "/>
<polygon class="st0" points="27,5.3 33.1,5.3 22.3,43 16,43 "/>
<polygon class="st0" points="61.2,5.3 67.5,5.3 96.5,5.3 94.7,11.4 65.6,11.4 56.4,43 50.1,43 59.4,11.4 53.3,11.4 55.1,5.3 "/>
<path class="st0" d="M27.5,38.2c2.7-9.4,5.5-19,8.2-28.5c0.6-2.3,3.7-4.6,5.6-4.6h7.6c3.3,0,4.3,2,3.2,5.8c-0.5,1.4-0.8,2.9-1.2,4.3
	c-2.4,1.1-4.7,2.1-7.2,3l1.8-7c-1.5,0-2.7,0-4.3,0c-2.4,8.5-5,17.2-7.5,25.7h4.4c0.5-1.8,1.1-3.5,1.5-5.3l7-3.2
	C45.9,31.6,45,34.8,44,38c-0.9,2.9-2.7,4.6-5.5,4.9h-8.4C27.5,42.7,26.8,40.7,27.5,38.2"/>
<path class="st0" d="M100.3,5.3h12.3c2.3,0,4,1.8,3.2,4.6c-1.4,4.7-2.6,9.4-4,14c-1.8,0.8-3.7,1.7-5.5,2.4
	c0.8,5.5,1.4,11.1,2.1,16.6h-6.4c-0.6-4.6-1.2-9.3-1.7-13.8l-1.2,0.6c-1.2,4.4-2.6,8.8-3.8,13.4h-6.4C93,30.4,96.7,17.8,100.3,5.3
	 M104.9,11.4h4.4l-2.6,9.1H102L104.9,11.4z"/>
<polygon class="st0" points="118.6,5.3 124.8,5.3 124.5,19 132.3,5.3 138.4,5.3 124.4,29.8 120.7,43 114.5,43 118.4,29.8 "/>
<g>
	<g class="st1">
		<path id="SVGID_1_" class="st2" d="M69.9,27.2l-0.8,2.6H85l0.8-2.6C80.7,27.2,75.1,27.2,69.9,27.2"/>
	</g>
	<g>
		<defs>
			<path id="SVGID_2_" d="M69.9,27.2l-0.8,2.6H85l0.8-2.6C80.7,27.2,75.1,27.2,69.9,27.2"/>
		</defs>
		<use xlink:href="#SVGID_2_"  style="overflow:visible;fill:#FFFFFF;"/>
		<clipPath id="SVGID_4_">
			<use xlink:href="#SVGID_2_"  style="overflow:visible;"/>
		</clipPath>
		<g class="st3">
			<g class="st4">
				<rect id="SVGID_3_" x="69" y="27" class="st5" width="17.2" height="3"/>
			</g>
			<g class="st4">
				<defs>
					<rect id="SVGID_5_" x="69" y="27" width="17.2" height="3"/>
				</defs>
				<use xlink:href="#SVGID_5_"  style="overflow:visible;fill:#FFFFFF;"/>
				<clipPath id="SVGID_6_">
					<use xlink:href="#SVGID_5_"  style="overflow:visible;"/>
				</clipPath>
				<g class="st6">
				</g>
			</g>
		</g>
	</g>
	<g>
		<defs>
			<path id="SVGID_7_" d="M69.9,27.2l-0.8,2.6H85l0.8-2.6C80.7,27.2,75.1,27.2,69.9,27.2"/>
		</defs>
		<use xlink:href="#SVGID_7_"  style="overflow:visible;fill:#FFFFFF;"/>
		<clipPath id="SVGID_8_">
			<use xlink:href="#SVGID_7_"  style="overflow:visible;"/>
		</clipPath>
		<rect x="69.4" y="27.2" class="st7" width="17.5" height="2.6"/>
	</g>
</g>
<g>
	<path class="st0" d="M70.2,14.7H93L84.8,43H62L70.2,14.7z M72.6,17.9l15.8,0.2l-6.2,21.6H66.6L72.6,17.9z"/>
	<path class="st0" d="M69.9,27.3H72c1.1-2.6,2.9-4.3,6.1-4.6h0.2c0.2,0,0.2,0,0.3,0c2.7,0,5.2,2.4,4.9,5.8
		c-0.8,6.2-10.2,8.4-11.6,1.4h-2.6C69.4,29,69.8,28.1,69.9,27.3 M78.3,25.5c1.5,0,2.6,1.4,2.3,2.9c-0.3,1.7-2,2.9-3.5,2.9
		c-1.5,0-2.6-1.4-2.3-2.9C75.1,26.9,76.6,25.5,78.3,25.5"/>
</g>
<g>
	<path class="st8" d="M143.1,8.3c0.3-1.1,0.8-1.8,1.5-2.4s1.5-0.9,2.6-0.9h4.3c0.9,0,1.7,0.3,2.1,0.9c0.5,0.6,0.5,1.4,0.2,2.4
		l-0.9,3l-4.4,2l1.4-4.6h-2.7l-4.9,16.1h2.7l1.1-3.3l4.6-2l-1.8,5.8c-0.3,1.1-0.8,1.8-1.5,2.4c-0.8,0.6-1.5,0.9-2.6,0.9h-4.3
		c-0.9,0-1.7-0.3-2-0.9c-0.3-0.6-0.5-1.4-0.2-2.4L143.1,8.3z"/>
	<path class="st8" d="M156.5,5.1h3.8l-6.1,19.9h2.9l6.1-19.9h3.8l-6.2,20.4c-0.3,1.1-0.8,1.8-1.5,2.4s-1.5,0.9-2.6,0.9h-4.3
		c-0.9,0-1.7-0.3-2-0.9s-0.5-1.4-0.2-2.4L156.5,5.1z"/>
	<path class="st8" d="M175.4,18.4h-6.7l-3.2,10.5h-3.8L169,5.3h7.5c0.9,0,1.7,0.3,2,0.9c0.3,0.6,0.5,1.4,0.2,2.4L175.4,18.4z
		 M172.6,15l1.8-6.1h-2.9l-1.8,6.1H172.6z"/>
</g>
</svg>
